# Blender v2.78 (sub 0) OBJ File: 'castle.blend'
# www.blender.org
mtllib CastleArchStraightTile.mtl.mtl
o Circular_Arch_Hall,_large
v 22.772764 0.012699 -6.455838
v 20.029564 0.012699 -6.455838
v 22.772764 2.755900 -6.455838
v 20.029564 2.755900 -6.455838
v 21.401165 2.512061 -6.455838
v 21.187098 2.490977 -6.455838
v 20.981256 2.428536 -6.455838
v 20.791553 2.327137 -6.455838
v 20.625277 2.190677 -6.455838
v 20.488817 2.024400 -6.455838
v 20.387419 1.834697 -6.455838
v 20.324978 1.628856 -6.455838
v 20.303894 1.414789 -6.455838
v 22.498438 0.012699 -6.455838
v 20.303894 0.012697 -6.455838
v 22.498438 1.414790 -6.455838
v 22.477354 1.628857 -6.455838
v 22.414913 1.834698 -6.455838
v 22.313513 2.024402 -6.455838
v 22.177053 2.190678 -6.455838
v 22.010777 2.327138 -6.455838
v 21.821072 2.428537 -6.455838
v 21.615231 2.490978 -6.455838
v 22.772764 0.012699 -3.712639
v 20.029564 0.012699 -3.712639
v 22.772764 2.755900 -3.712639
v 20.029564 2.755900 -3.712639
v 21.401165 2.512061 -3.712639
v 21.187098 2.490977 -3.712638
v 20.981256 2.428536 -3.712639
v 20.791553 2.327137 -3.712639
v 20.625277 2.190677 -3.712639
v 20.488817 2.024400 -3.712639
v 20.387419 1.834697 -3.712639
v 20.324978 1.628856 -3.712639
v 20.303894 1.414789 -3.712639
v 22.498438 0.012699 -3.712639
v 20.303894 0.012697 -3.712639
v 22.498438 1.414790 -3.712639
v 22.477354 1.628857 -3.712639
v 22.414913 1.834698 -3.712639
v 22.313513 2.024402 -3.712639
v 22.177053 2.190678 -3.712639
v 22.010777 2.327138 -3.712639
v 21.821072 2.428537 -3.712639
v 21.615231 2.490978 -3.712639
v 20.029564 2.755900 -6.455838
v 20.029564 2.755900 -6.455838
v 20.029564 0.012699 -6.455838
v 20.029564 0.012699 -6.455838
v 22.772764 2.755900 -6.455838
v 22.772764 2.755900 -6.455838
v 22.772764 0.012699 -6.455838
v 22.772764 0.012699 -6.455838
v 21.187098 2.490977 -6.455838
v 21.401165 2.512061 -6.455838
v 20.981256 2.428536 -6.455838
v 20.791553 2.327137 -6.455838
v 20.625277 2.190677 -6.455838
v 20.488817 2.024400 -6.455838
v 20.387419 1.834697 -6.455838
v 20.324978 1.628856 -6.455838
v 20.303894 1.414789 -6.455838
v 22.498438 1.414790 -6.455838
v 22.498438 0.012699 -6.455838
v 22.498438 0.012699 -6.455838
v 20.303894 0.012697 -6.455838
v 20.303894 0.012697 -6.455838
v 22.477354 1.628857 -6.455838
v 22.414913 1.834698 -6.455838
v 22.313513 2.024402 -6.455838
v 22.177053 2.190678 -6.455838
v 22.010777 2.327138 -6.455838
v 21.821072 2.428537 -6.455838
v 21.615231 2.490978 -6.455838
v 20.029564 2.755900 -3.712639
v 20.029564 2.755900 -3.712639
v 20.029564 0.012699 -3.712639
v 20.029564 0.012699 -3.712639
v 22.772764 2.755900 -3.712639
v 22.772764 2.755900 -3.712639
v 22.772764 0.012699 -3.712639
v 22.772764 0.012699 -3.712639
v 21.187098 2.490977 -3.712638
v 21.401165 2.512061 -3.712639
v 20.981256 2.428536 -3.712639
v 20.791553 2.327137 -3.712639
v 20.625277 2.190677 -3.712639
v 20.488817 2.024400 -3.712639
v 20.387419 1.834697 -3.712639
v 20.324978 1.628856 -3.712639
v 20.303894 1.414789 -3.712639
v 22.498438 1.414790 -3.712639
v 22.498438 0.012699 -3.712639
v 22.498438 0.012699 -3.712639
v 20.303894 0.012697 -3.712639
v 20.303894 0.012697 -3.712639
v 22.477354 1.628857 -3.712639
v 22.414913 1.834698 -3.712639
v 22.313513 2.024402 -3.712639
v 22.177053 2.190678 -3.712639
v 22.010777 2.327138 -3.712639
v 21.821072 2.428537 -3.712639
v 21.615231 2.490978 -3.712639
vt 0.6664 0.3336
vt 0.6664 0.6664
vt 0.6368 0.5000
vt 0.3336 0.3331
vt 0.5000 0.3035
vt 0.6664 0.3331
vt 0.3669 0.0002
vt 0.3669 0.1704
vt 0.3336 0.0002
vt 0.6664 0.9998
vt 0.3336 0.9998
vt 0.3336 0.6669
vt 0.6664 0.6669
vt 0.3331 0.0002
vt 0.3331 0.1704
vt 0.0002 0.1704
vt 0.0002 0.0002
vt 0.3331 0.7923
vt 0.3331 0.8256
vt 0.0002 0.8256
vt 0.0002 0.7923
vt 0.3331 0.1965
vt 0.0002 0.1965
vt 0.3331 0.4053
vt 0.3331 0.4314
vt 0.0002 0.4314
vt 0.0002 0.4053
vt 0.3331 0.2226
vt 0.3331 0.2487
vt 0.0002 0.2487
vt 0.0002 0.2226
vt 0.3331 0.4575
vt 0.3331 0.4836
vt 0.0002 0.4836
vt 0.0002 0.4575
vt 0.3331 0.2748
vt 0.3331 0.3009
vt 0.0002 0.3009
vt 0.0002 0.2748
vt 0.0002 0.3270
vt 0.3331 0.3270
vt 0.3331 0.3531
vt 0.0002 0.3531
vt 0.3331 0.5097
vt 0.3331 0.5358
vt 0.0002 0.5358
vt 0.0002 0.5097
vt 0.9998 0.6669
vt 0.9998 0.9998
vt 0.6669 0.9998
vt 0.6669 0.6669
vt 0.3331 0.5619
vt 0.3331 0.5880
vt 0.0002 0.5880
vt 0.0002 0.5619
vt 0.3331 0.7586
vt 0.3331 0.7919
vt 0.0002 0.7919
vt 0.0002 0.7586
vt 0.9998 0.3331
vt 0.6669 0.3331
vt 0.6669 0.0002
vt 0.9998 0.0002
vt 0.3331 0.7581
vt 0.0002 0.7581
vt 0.3331 0.3792
vt 0.0002 0.3792
vt 0.3336 0.6664
vt 0.3336 0.6331
vt 0.5037 0.6331
vt 0.6331 0.1704
vt 0.6331 0.0002
vt 0.6664 0.0002
vt 0.5297 0.6306
vt 0.5297 0.3694
vt 0.5037 0.3669
vt 0.5546 0.3770
vt 0.5546 0.6230
vt 0.5777 0.3893
vt 0.5777 0.6107
vt 0.5978 0.4059
vt 0.5978 0.5941
vt 0.6144 0.4260
vt 0.6144 0.5740
vt 0.6267 0.4490
vt 0.6267 0.5510
vt 0.6343 0.4740
vt 0.6343 0.5260
vt 0.5260 0.3009
vt 0.6306 0.1963
vt 0.3694 0.1963
vt 0.6230 0.2213
vt 0.3770 0.2213
vt 0.6107 0.2443
vt 0.3893 0.2443
vt 0.5941 0.2645
vt 0.4059 0.2645
vt 0.5740 0.2811
vt 0.4260 0.2811
vt 0.5510 0.2934
vt 0.4490 0.2934
vt 0.4740 0.3009
vt 0.3336 0.3336
vt 0.3336 0.3669
vn 0.0000 0.0000 -1.0000
vn 0.0000 0.0000 1.0000
vn 0.0000 1.0000 0.0000
vn 1.0000 0.0000 0.0000
vn 0.9988 -0.0490 0.0000
vn 0.0000 -1.0000 0.0000
vn 0.9808 -0.1951 0.0000
vn -0.1951 -0.9808 0.0000
vn -0.3827 -0.9239 0.0000
vn 0.9239 -0.3827 0.0000
vn 0.8314 -0.5556 0.0000
vn -0.5556 -0.8314 0.0000
vn -0.7071 -0.7071 0.0000
vn 0.7071 -0.7071 0.0000
vn 0.5556 -0.8314 0.0000
vn 0.3827 -0.9239 0.0000
vn 0.1951 -0.9808 0.0000
vn -0.8314 -0.5556 0.0000
vn -0.9239 -0.3827 0.0000
vn -0.9808 -0.1951 0.0000
vn -0.9988 -0.0490 0.0000
vn -1.0000 0.0000 0.0000
usemtl Castle_Stone
s 1
f 48/1/1 51/2/1 56/3/1
f 76/4/2 28/5/2 80/6/2
f 96/7/2 36/8/2 76/4/2 78/9/2
f 3/10/3 4/11/3 77/12/3 26/13/3
f 67/14/4 63/15/5 92/16/5 97/17/4
f 66/18/6 54/19/6 83/20/6 95/21/6
f 63/15/5 62/22/7 91/23/7 92/16/5
f 75/24/8 74/25/9 103/26/9 104/27/8
f 61/28/10 60/29/11 89/30/11 90/31/10
f 73/32/12 72/33/13 101/34/13 102/35/12
f 59/36/14 58/37/15 87/38/15 88/39/14
f 86/40/16 57/41/16 6/42/17 84/43/17
f 71/44/18 18/45/19 41/46/19 100/47/18
f 53/48/4 52/49/4 81/50/4 82/51/4
f 69/52/20 64/53/21 93/54/21 98/55/20
f 50/56/6 68/57/6 38/58/6 79/59/6
f 47/60/22 49/61/22 25/62/22 27/63/22
f 64/53/21 65/64/22 94/65/22 93/54/21
f 5/66/6 75/24/8 104/27/8 85/67/6
f 62/22/7 61/28/10 90/31/10 91/23/7
f 74/25/9 73/32/12 102/35/12 103/26/9
f 60/29/11 59/36/14 88/39/14 89/30/11
f 72/33/13 71/44/18 100/47/18 101/34/13
f 58/37/15 57/41/16 86/40/16 87/38/15
f 51/2/1 1/68/1 14/69/1 16/70/1
f 80/6/2 39/71/2 37/72/2 24/73/2
f 17/74/1 51/2/1 16/70/1
f 48/1/1 12/75/1 13/76/1
f 11/77/1 12/75/1 48/1/1
f 51/2/1 17/74/1 70/78/1
f 10/79/1 11/77/1 48/1/1
f 51/2/1 70/78/1 19/80/1
f 9/81/1 10/79/1 48/1/1
f 51/2/1 19/80/1 20/82/1
f 8/83/1 9/81/1 48/1/1
f 51/2/1 20/82/1 21/84/1
f 7/85/1 8/83/1 48/1/1
f 51/2/1 21/84/1 22/86/1
f 55/87/1 7/85/1 48/1/1
f 51/2/1 22/86/1 23/88/1
f 56/3/1 55/87/1 48/1/1
f 51/2/1 23/88/1 56/3/1
f 28/5/2 46/89/2 80/6/2
f 84/43/17 6/42/17 5/66/6 85/67/6
f 40/90/2 39/71/2 80/6/2
f 76/4/2 36/8/2 35/91/2
f 99/92/2 40/90/2 80/6/2
f 76/4/2 35/91/2 34/93/2
f 42/94/2 99/92/2 80/6/2
f 76/4/2 34/93/2 33/95/2
f 43/96/2 42/94/2 80/6/2
f 76/4/2 33/95/2 32/97/2
f 44/98/2 43/96/2 80/6/2
f 76/4/2 32/97/2 31/99/2
f 45/100/2 44/98/2 80/6/2
f 76/4/2 31/99/2 30/101/2
f 46/89/2 45/100/2 80/6/2
f 76/4/2 30/101/2 29/102/2
f 76/4/2 29/102/2 28/5/2
f 18/45/19 69/52/20 98/55/20 41/46/19
f 2/103/1 48/1/1 13/76/1 15/104/1
