# Blender v2.78 (sub 0) OBJ File: 'castle.blend'
# www.blender.org
mtllib CastleWallCorner.mtl
o Wall,_Corner
v 3.870400 7.865105 0.125430
v 3.413200 7.865105 0.125430
v 3.870402 7.865104 2.868627
v 3.870401 5.121905 0.125430
v 3.413201 5.121905 0.125430
v 3.870402 5.121904 2.868627
v 3.413202 5.121904 2.411428
v 3.413202 7.865105 2.411428
v 1.127201 7.865104 2.868629
v 1.127201 5.121904 2.868628
v 1.127201 5.121904 2.411429
v 1.127201 7.865104 2.411430
vt 0.7059 0.5000
vt 0.7647 0.5000
vt 0.7647 1.0000
vt 0.7059 1.0000
vt 0.0000 1.0000
vt 0.0000 0.5000
vt 0.2941 0.5000
vt 0.2941 1.0000
vt 0.6471 1.0000
vt 0.5882 0.9167
vt 0.5882 0.5000
vt 0.6471 0.5000
vt 0.7059 0.0000
vt 1.0000 0.0000
vt 1.0000 0.5000
vt 0.7059 0.5000
vt 0.3529 0.0000
vt 0.7059 0.0000
vt 0.7059 0.5000
vt 0.3529 0.5000
vt 0.6471 1.0000
vt 0.6471 0.5833
vt 0.7059 0.5000
vt 0.5882 1.0000
vt 0.5294 1.0000
vt 0.5294 0.5000
vt 0.5882 0.5000
vt 0.5294 1.0000
vt 0.4706 0.9167
vt 0.4706 0.5000
vt 0.0000 0.5000
vt 0.0000 0.0000
vt 0.3529 0.0000
vt 0.3529 0.5000
vt 0.2941 0.5833
vt 0.3529 0.5000
vt 0.3529 1.0000
vt 0.2941 1.0000
vn -0.0000 0.0000 -1.0000
vn 0.0000 -1.0000 -0.0000
vn -1.0000 -0.0000 0.0000
vn 1.0000 0.0000 -0.0000
vn 0.0000 1.0000 0.0000
vn 0.0000 -0.0000 1.0000
usemtl Castle_Stone
s off
f 4/1/1 5/2/1 2/3/1 1/4/1
f 8/5/1 7/6/1 11/7/1 12/8/1
f 6/9/2 7/10/2 5/11/2 4/12/2
f 5/13/3 7/14/3 8/15/3 2/16/3
f 6/17/4 4/18/4 1/19/4 3/20/4
f 1/4/5 2/21/5 8/22/5 3/23/5
f 11/24/3 10/25/3 9/26/3 12/27/3
f 3/28/5 8/29/5 12/30/5 9/26/5
f 6/31/6 3/32/6 9/33/6 10/34/6
f 7/35/2 6/36/2 10/37/2 11/38/2
